# xmcd
#
# Track frame offsets:
#	182
#	15050
#	29050
#	42602
#	54597
#	66577
#	79697
#	90487
#	102130
#	109092
#	120145
#	132672
#	143912
#	153402
#	165670
#	179875
#	189802
#	204062
#	216285
#	229735
#	244082
#	252580
#	263872
#	274725
#
# Disc length: 3863 seconds
#
# Revision: 0
# Processed by: cddbd v1.5.1PL0 Copyright (c) Steve Scherf et al.
# Submitted via: dBpowerAMP V4.0
#
DISCID=540f1518
DTITLE=Cowboy Barnes and His Dirinkin' Buddies - The Whole Round
DYEAR=1995
DGENRE=Country
TTITLE0=Pink Elephants
TTITLE1=Wine Wine Wine
TTITLE2=Here I am, Drunk Again
TTITLE3=I Ain't Drunk, I'm Just Drinkin'
TTITLE4=Save Me The Label
TTITLE5=What's The Word - Thunderbird
TTITLE6=I Fought The Beer
TTITLE7=Beer Drinkin' Blues
TTITLE8=Ain't Going To Betty Ford
TTITLE9=Bottle Of Jack
TTITLE10=Flashin' T
TTITLE11=Bad Hangover
TTITLE12=Shortnin' Beer
TTITLE13=Running Drunk
TTITLE14=Whisky Made Me Drunk
TTITLE15=Bubble Trouble
TTITLE16=Bar Potion #9
TTITLE17=I think I Drink Therefore I Am
TTITLE18=Suds
TTITLE19=Keep On Drinking
TTITLE20=It's Your Round
TTITLE21=Rubber Legs
TTITLE22=Drunk
TTITLE23=What A Way To Die
EXTD=
EXTT0=
EXTT1=
EXTT2=
EXTT3=
EXTT4=
EXTT5=
EXTT6=
EXTT7=
EXTT8=
EXTT9=
EXTT10=
EXTT11=
EXTT12=
EXTT13=
EXTT14=
EXTT15=
EXTT16=
EXTT17=
EXTT18=
EXTT19=
EXTT20=
EXTT21=
EXTT22=
EXTT23=
PLAYORDER=
